<?xml version="1.0" encoding="UTF-8" standalone="no"?>
<svg
   width="1300"
   height="500"
   version="1.1"
   viewBox="0 0 343.96 132.29"
   id="svg55"
   sodipodi:docname="miami.svg"
   inkscape:export-filename="miami.svg"
   inkscape:export-xdpi="96"
   inkscape:export-ydpi="96"
   inkscape:version="1.3.2 (091e20e, 2023-11-25, custom)"
   xmlns:inkscape="http://www.inkscape.org/namespaces/inkscape"
   xmlns:sodipodi="http://sodipodi.sourceforge.net/DTD/sodipodi-0.dtd"
   xmlns:xlink="http://www.w3.org/1999/xlink"
   xmlns="http://www.w3.org/2000/svg"
   xmlns:svg="http://www.w3.org/2000/svg"
   xmlns:rdf="http://www.w3.org/1999/02/22-rdf-syntax-ns#"
   xmlns:cc="http://creativecommons.org/ns#"
   xmlns:dc="http://purl.org/dc/elements/1.1/">
  <sodipodi:namedview
     id="namedview55"
     pagecolor="#ffffff"
     bordercolor="#000000"
     borderopacity="0.25"
     inkscape:showpageshadow="2"
     inkscape:pageopacity="0.0"
     inkscape:pagecheckerboard="0"
     inkscape:deskcolor="#d1d1d1"
     inkscape:zoom="1.0792308"
     inkscape:cx="461.90306"
     inkscape:cy="258.05417"
     inkscape:window-width="1920"
     inkscape:window-height="1009"
     inkscape:window-x="-8"
     inkscape:window-y="-8"
     inkscape:window-maximized="1"
     inkscape:current-layer="svg55" />
  <defs
     id="defs8">
    <pattern
       id="pattern4264-8"
       patternTransform="matrix(-.77603 .00097936 -.00097936 -.77603 -1599.8 380.49)"
       xlink:href="#pattern4256-2" />
    <pattern
       id="pattern4256-2"
       width="10.793857"
       height="10.773841"
       patternTransform="matrix(-.56302 -.53407 .53407 -.56302 1593.7 910.57)"
       patternUnits="userSpaceOnUse">
      <g
         transform="matrix(.58789 .0060987 -.0060987 .58789 -595.38 -720.71)"
         id="g4">
        <rect
           x="1025.5"
           y="1215.3"
           width="18.173"
           height="18.096"
           id="rect2" />
        <rect
           x="1025.5"
           y="1215.3"
           width="9.0747"
           height="9.0747"
           fill="#fff"
           id="rect3" />
        <rect
           x="1034.6"
           y="1224.3"
           width="9.0747"
           height="9.0747"
           fill="#fff"
           id="rect4" />
      </g>
    </pattern>
    <clipPath
       id="clipPath3490-7">
      <rect
         transform="matrix(-.71834 .69569 -.69569 -.71834 0 0)"
         x="683.14"
         y="104.1"
         width="1511.8"
         height="1003.7"
         fill="#006a00"
         id="rect5" />
    </clipPath>
    <clipPath
       id="clipPath3494-9">
      <rect
         transform="matrix(-.9473 -.32036 .9519 -.3064 0 0)"
         x="-4232.8"
         y="-2372.1"
         width="2168.2"
         height="1468.4"
         fill="#006a00"
         id="rect6" />
    </clipPath>
    <clipPath
       id="clipPath3494-9-5">
      <rect
         transform="matrix(-.9473 -.32036 .9519 -.3064 0 0)"
         x="-4232.8"
         y="-2372.1"
         width="2168.2"
         height="1468.4"
         fill="#006a00"
         id="rect7" />
    </clipPath>
    <clipPath
       id="clipPath3494-9-5-2">
      <rect
         transform="matrix(-.9473 -.32036 .9519 -.3064 0 0)"
         x="-4232.8"
         y="-2372.1"
         width="2168.2"
         height="1468.4"
         fill="#006a00"
         id="rect8" />
    </clipPath>
  </defs>
  <metadata
     id="metadata8">
    <rdf:RDF>
      <cc:Work
         rdf:about="">
        <dc:format>image/svg+xml</dc:format>
        <dc:type
           rdf:resource="http://purl.org/dc/dcmitype/StillImage" />
        <dc:title />
      </cc:Work>
    </rdf:RDF>
  </metadata>
  <g
     transform="rotate(.56989 204.39 303.83)"
     stroke="#000"
     id="g9">
    <path
       d="m202.85 109.17c-7.7572-4.0597-23.271-12.179-35.835-18.769s-22.175-11.652-27.235-14.336c-5.0601-2.6832-5.5681-2.9876-6.0849-3.3556-0.51681-0.36807-1.0424-0.79972-1.5148-1.2734s-0.89174-0.98936-1.1974-1.4396-0.4979-0.83508-0.65991-1.4106c-0.16201-0.57551-0.29394-1.3417-0.29385-1.9881 9e-5 -0.64642 0.13211-1.1732 0.35927-1.6888s0.54947-1.0201 1.0354-1.564c0.48593-0.54397 1.1355-1.1275 2.0389-1.8416 0.90339-0.71413 2.0606-1.5589 3.1568-2.3612 1.0962-0.80238 2.1314-1.5623 2.8589-2.1654 0.72751-0.6031 1.1473-1.0493 1.5411-1.5415 0.39389-0.49225 0.76185-1.0305 1.102-1.6542s0.65253-1.3327 0.88565-2.2113c0.23313-0.87864 0.38704-1.9268 0.37298-4.1573-0.0141-2.2305-0.19606-5.6432-0.23983-7.675-0.0438-2.0319 0.0507-2.6829 0.26961-3.5293 0.21895-0.84633 0.56239-1.8879 0.96626-2.8221s0.86816-1.7609 1.3173-2.4135c0.4491-0.65256 0.88305-1.1309 1.3717-1.6199 0.48862-0.48894 1.0319-0.98843 1.713-1.5735 0.68105-0.58505 1.4998-1.2556 2.4924-1.9189s2.1589-1.3193 3.2737-1.9018 2.1779-1.0916 3.459-1.6586c1.2811-0.56698 2.7801-1.1919 4.2762-1.7141 1.4961-0.52227 2.9894-0.94189 4.3617-1.2532 1.3724-0.31126 2.6239-0.51414 5.0422-0.71868s6.0032-0.41072 8.4366-0.46621 3.7152 0.03974 4.8817 0.19576 2.2177 0.37285 3.5204 0.7351 2.8569 0.86994 4.6092 1.5411c1.7522 0.67114 3.7025 1.5057 11.849 5.6321 8.1467 4.1264 22.489 11.544 30.275 15.541 7.786 3.9966 9.0151 4.5717 10.04 5.0206 1.0245 0.44891 1.8444 0.77162 2.8504 1.0301 1.006 0.25851 2.198 0.45272 3.1896 0.57787s1.7827 0.18122 2.6479 0.1391c0.86521-0.04212 1.8044-0.18247 2.6642-0.33473s1.6402-0.31641 2.6159-0.67929c0.97575-0.36288 2.1467-0.92449 3.3442-1.5899 1.1975-0.6654 2.4214-1.4346 3.7352-2.3027 1.3138-0.86816 2.7172-1.8353 3.9897-2.7408 1.2725-0.90557 2.414-1.7495 3.3777-2.3562 0.96378-0.6067 1.7499-0.97612 2.6567-1.2962s1.9342-0.59091 3.4165-0.74987 3.4194-0.20602 4.8652-0.14246 2.4004 0.2378 3.4027 0.58312 2.0523 0.86179 3.2248 1.6246c1.1725 0.76278 2.4672 1.7719 3.8394 2.9113s2.8215 2.409 4.0035 3.3685c1.182 0.95945 2.0966 1.6087 3.2393 2.2468s2.5135 1.2651 3.7496 1.7174c1.2362 0.45227 2.3376 0.72972 3.4004 0.85933 1.0628 0.1296 2.0868 0.11127 3.2725 0.01411 1.1858-0.09716 2.5332-0.27318 3.8895-0.59152 1.3563-0.31835 2.7214-0.77903 4.1516-1.3612 1.4302-0.58212 2.9254-1.2857 4.2483-1.965 1.323-0.6794 2.4736-1.3346 3.5788-2.1138 1.1052-0.77917 2.165-1.6822 3.1304-2.5807 0.96538-0.8985 1.8363-1.7924 2.5656-2.845 0.72926-1.0526 1.3167-2.2638 1.7455-3.3333 0.42882-1.0695 0.69898-1.9971 0.89143-2.7397s0.3072-1.3 0.28499-2.4028c-0.0222-1.1027-0.18132-2.7505-0.34549-3.8542-0.16418-1.1036-0.33333-1.663-0.72854-2.3297-0.39521-0.66664-1.0163-1.4405-1.7595-2.1296-0.74316-0.68908-1.6083-1.2934-2.4583-1.7486-0.85-0.45523-1.6848-0.76144-2.5611-0.94734-0.87628-0.1859-1.794-0.25156-2.7622-0.22014-0.96817 0.03142-1.9868 0.15988-3.0236 0.39962s-2.0919 0.59072-3.4667 0.85477-3.069 0.44119-4.8492 0.4727-3.6464-0.08256-5.5002-0.2682c-1.8539-0.18564-3.6954-0.44281-6.5044-0.97612s-6.5853-1.3427-9.3801-1.9082c-2.7948-0.56551-4.6079-0.88714-7.111-1.1278-2.503-0.2407-5.6958-0.40052-7.7335-0.47469-2.0376-0.07417-2.9201-0.06272-11.593 0.56479-8.6734 0.62751-25.137 1.871-34.866 2.5184-9.7287 0.64737-12.722 0.69858-15.113 0.65736-2.3908-0.04122-4.1791-0.17486-5.852-0.36931-1.673-0.19446-3.2306-0.44969-4.8723-0.81123s-3.3674-0.82934-5.3001-1.4999c-1.9327-0.67061-4.0723-1.544-6.2097-2.3701s-4.2724-1.6051-6.3017-2.3183c-2.0294-0.71318-3.953-1.3605-5.6027-1.8872-1.6498-0.52669-3.0255-0.93269-4.8441-1.3644-1.8186-0.43173-4.0798-0.88921-6.0346-1.2039-1.9548-0.31472-3.603-0.48671-5.6126-0.6332s-4.3806-0.2675-7.7193-0.18368c-3.3387 0.083822-7.6449 0.37244-10.628 0.62815-2.9834 0.25572-4.6439 0.47851-6.9114 0.86492s-5.1419 0.93639-8.2769 1.641c-3.135 0.7046-6.5304 1.5638-9.6397 2.4721-3.1093 0.90833-5.9323 1.8658-10.242 3.5343s-10.107 4.0479-16.489 6.724c-6.3818 2.6761-13.348 5.6486-18.007 7.6096-4.6589 1.961-7.0101 2.9105-10.08 4.3248-3.0699 1.4144-6.8582 3.2936-11.664 5.8022-4.8059 2.5086-10.629 5.6465-15.513 8.3819s-8.8287 5.0682-11.142 6.5634c-2.3131 1.4952-2.9946 2.1528-3.5176 2.7468-0.52294 0.59407-0.88732 1.1247-1.0952 1.6643-0.20785 0.53964-0.25915 1.0885-0.19008 1.5923 0.06907 0.50388 0.25867 0.96292 0.73808 1.5361s1.2487 1.2604 2.6142 2.1695 3.3271 2.04 4.6211 2.7407c1.294 0.70072 1.9204 0.97124 2.6654 1.3865 0.74496 0.41524 1.6084 0.97524 2.3714 1.646 0.763 0.67079 1.4254 1.4524 1.9189 2.1977 0.49349 0.74527 0.8179 1.4542 1.0474 2.2736 0.22951 0.81948 0.36401 1.7495 0.34283 2.6871-0.02119 0.93764-0.19813 1.8828-0.49159 2.8393-0.29346 0.95647-0.70345 1.9241-1.219 2.7855s-1.1366 1.6163-1.9313 2.2404c-0.79474 0.6241-1.763 1.1172-4.5711 1.4815-2.8082 0.36425-7.4559 0.59964-10.09 0.82707-2.6339 0.22743-3.2539 0.44684-4.0078 0.83046s-1.6417 0.93143-2.4486 1.5226c-0.80687 0.59117-1.5328 1.2257-2.7825 3.0841s-3.0232 4.9406-3.9388 6.6171c-0.91563 1.6765-0.97339 1.9474-0.93454 2.2608 0.038848 0.31338 0.17445 0.66943 0.45806 0.99073 0.28361 0.32131 0.71539 0.60773 1.1642 0.8382s0.91453 0.40487 1.3154 0.6218c0.40084 0.21694 0.73671 0.4765 1.0015 0.73163 0.26476 0.25513 0.45829 0.50586 0.58171 0.93348 0.12341 0.42762 0.17649 1.0321 0.16322 1.7305s-0.09293 1.4906-0.39938 2.9681c-0.30645 1.4774-0.83968 3.6399-1.246 5.3236s-0.6857 2.8884-0.85664 3.9941c-0.17094 1.1056-0.2334 2.1121-0.23158 2.7266 0.0018 0.61445 0.06804 0.8369 0.22568 1.1589 0.15765 0.32197 0.40681 0.74343 0.71462 1.0754 0.30781 0.33195 0.67439 0.57427 1.1587 0.7242 0.48428 0.14994 1.0862 0.20733 48.653-0.23343 47.566-0.44077 142.09-1.3797 189.43-1.8586s47.489-0.49796 47.727-0.59343c0.23799-0.0955 0.56409-0.26745 0.87246-0.46087 0.30837-0.19343 0.59893-0.40827 0.90313-0.80223s0.62191-0.9669 0.8094-1.4667 0.24476-0.92624 0.21504-1.421c-0.0297-0.49476-0.14633-1.0577-0.35567-1.5771-0.20934-0.51941-0.51125-0.99527-1.0389-1.527-0.52769-0.53173-1.281-1.1194-3.6468-2.6487s-6.3438-4.0002-8.8786-5.4543c-2.5349-1.4541-3.6265-1.8915-4.8807-2.2318-1.2542-0.34024-2.6708-0.58341-4.0826-0.72645-1.4118-0.14305-2.8187-0.186-4.451-0.0507-1.6324 0.1353-3.4902 0.44879-5.2943 0.94922s-3.5545 1.1878-4.9574 1.9139c-1.4029 0.72616-2.4582 1.4911-3.6878 2.3426s-2.6333 1.7895-4.3396 2.6977c-1.7063 0.90819-3.7149 1.7865-5.9489 2.62-2.2339 0.83354-4.6929 1.6223-6.7963 2.1596-2.1034 0.53728-3.8511 0.8231-5.9941 1.0055-2.143 0.18242-4.6812 0.26147-6.8344 0.23255-2.1533-0.0289-3.9215-0.16576-5.8331-0.49635-1.9115-0.33059-3.9662-0.85486-5.9146-1.4847-1.9484-0.62983-3.7904-1.3651-5.2377-2.0082-1.4473-0.64308-2.4999-1.1939-3.026-1.4692-0.52612-0.27531-0.52612-0.27542-8.2834-4.3351z"
       fill="none"
       stroke-width="2.6458"
       id="path8" />
    <path
       d="m263.15 108.4c-2.3567 0.60543-4.7132 1.2108-7.1842 1.7548s-5.0564 1.0268-7.7802 1.4159c-2.7238 0.38912-5.586 0.68464-8.0181 0.88116-2.4322 0.19652-4.4343 0.29405-6.5748 0.29796-2.1405 4e-3 -4.4194-0.0858-6.8187-0.35913-2.3993-0.27338-4.919-0.73039-6.8259-1.195s-3.2009-0.93674-5.6631-2.0433c-2.4622-1.1065-6.0925-2.8473-13.673-6.7038-7.58-3.8564-19.109-9.8282-29.175-15.046-10.066-5.2182-18.667-9.6825-23.259-12.157-4.5915-2.4745-5.1725-2.9591-5.7807-3.5427s-1.2435-1.2662-1.7363-2.0004c-0.49283-0.73418-0.84329-1.5199-1.0979-2.3994-0.25464-0.87954-0.41355-1.8529-0.34399-2.7148 0.0695-0.86182 0.36748-1.6122 0.68982-2.3191 0.32235-0.70696 0.66909-1.3705 1.0761-2.1708 0.40699-0.8003 0.87421-1.7373 1.2695-2.5482 0.39533-0.81088 0.71875-1.4956 0.90951-2.3858s0.24889-1.9856 0.30701-3.0809"
       fill="none"
       stroke-width="1.3229"
       id="path9" />
  </g>
  <g
     transform="rotate(.56989 204.39 303.83)"
     fill="#f00"
     stroke="#fff"
     stroke-linecap="round"
     stroke-width=".86722"
     id="g12" />
  <g
     transform="rotate(.56989 204.39 303.83)"
     fill="#fff"
     stroke="#000"
     id="g32">
    <g
       stroke-width=".28122"
       id="g31">
      <path
         d="m131.3 65.73a1.1465 1.1395 0 0 1-1.1901 1.0943 1.1465 1.1395 0 0 1-1.1011-1.1828 1.1465 1.1395 0 0 1 1.19-1.0945 1.1465 1.1395 0 0 1 1.1013 1.1826"
         id="path13" />
      <path
         d="m144 52.613a1.1465 1.1395 0 0 1-1.1901 1.0943 1.1465 1.1395 0 0 1-1.1011-1.1828 1.1465 1.1395 0 0 1 1.19-1.0945 1.1465 1.1395 0 0 1 1.1013 1.1826"
         id="path14" />
      <path
         d="m147.45 30.159a1.1465 1.1395 0 0 1-1.1901 1.0943 1.1465 1.1395 0 0 1-1.1011-1.1828 1.1465 1.1395 0 0 1 1.19-1.0945 1.1465 1.1395 0 0 1 1.1013 1.1826"
         id="path15" />
      <path
         d="m253.69 48.603a1.1465 1.1395 0 0 1-1.1901 1.0943 1.1465 1.1395 0 0 1-1.1011-1.1828 1.1465 1.1395 0 0 1 1.19-1.0945 1.1465 1.1395 0 0 1 1.1013 1.1826"
         id="path16" />
      <path
         d="m283.34 36.515a1.1465 1.1395 0 0 1-1.1901 1.0943 1.1465 1.1395 0 0 1-1.1011-1.1828 1.1465 1.1395 0 0 1 1.19-1.0945 1.1465 1.1395 0 0 1 1.1013 1.1826"
         id="path17" />
      <path
         d="m313.91 49.94a1.1465 1.1395 0 0 1-1.1901 1.0943 1.1465 1.1395 0 0 1-1.1011-1.1828 1.1465 1.1395 0 0 1 1.19-1.0945 1.1465 1.1395 0 0 1 1.1013 1.1826"
         id="path18" />
      <path
         d="m337.74 33.583a1.1465 1.1395 0 0 1-1.1901 1.0943 1.1465 1.1395 0 0 1-1.1011-1.1828 1.1465 1.1395 0 0 1 1.19-1.0945 1.1465 1.1395 0 0 1 1.1013 1.1826"
         id="path19" />
      <path
         d="m327.72 18.317a1.1465 1.1395 0 0 1-1.1901 1.0943 1.1465 1.1395 0 0 1-1.1011-1.1828 1.1465 1.1395 0 0 1 1.19-1.0945 1.1465 1.1395 0 0 1 1.1013 1.1826"
         id="path20" />
      <path
         d="m214.24 18.906a1.1465 1.1395 0 0 1-1.1901 1.0943 1.1465 1.1395 0 0 1-1.1011-1.1828 1.1465 1.1395 0 0 1 1.19-1.0945 1.1465 1.1395 0 0 1 1.1013 1.1826"
         id="path21" />
      <path
         d="m165.9 6.7619a1.1465 1.1395 0 0 1-1.1901 1.0943 1.1465 1.1395 0 0 1-1.1011-1.1828 1.1465 1.1395 0 0 1 1.19-1.0945 1.1465 1.1395 0 0 1 1.1013 1.1826"
         id="path22" />
      <path
         d="m26.848 59.875a1.1465 1.1395 0 0 1-1.1901 1.0943 1.1465 1.1395 0 0 1-1.1011-1.1828 1.1465 1.1395 0 0 1 1.19-1.0945 1.1465 1.1395 0 0 1 1.1013 1.1826"
         id="path23" />
      <path
         d="m43.119 77.204a1.1465 1.1395 0 0 1-1.1901 1.0943 1.1465 1.1395 0 0 1-1.1011-1.1828 1.1465 1.1395 0 0 1 1.19-1.0945 1.1465 1.1395 0 0 1 1.1013 1.1826"
         id="path24" />
      <path
         d="m20.009 89.054a1.1465 1.1395 0 0 1-1.1901 1.0943 1.1465 1.1395 0 0 1-1.1011-1.1828 1.1465 1.1395 0 0 1 1.19-1.0945 1.1465 1.1395 0 0 1 1.1013 1.1826"
         id="path25" />
      <path
         d="m10.872 102.61a1.1465 1.1395 0 0 1-1.1901 1.0943 1.1465 1.1395 0 0 1-1.1011-1.1828 1.1465 1.1395 0 0 1 1.19-1.0945 1.1465 1.1395 0 0 1 1.1013 1.1826"
         id="path26" />
      <path
         d="m14.764 106.09a1.1465 1.1395 0 0 1-1.1901 1.0943 1.1465 1.1395 0 0 1-1.1011-1.1828 1.1465 1.1395 0 0 1 1.19-1.0944 1.1465 1.1395 0 0 1 1.1013 1.1826"
         id="path27" />
      <path
         d="m13.88 125.54a1.1465 1.1395 0 0 1-1.1901 1.0943 1.1465 1.1395 0 0 1-1.1011-1.1828 1.1465 1.1395 0 0 1 1.19-1.0944 1.1465 1.1395 0 0 1 1.1013 1.1826"
         id="path28" />
      <path
         d="m303.02 120.3a1.1465 1.1395 0 0 1-1.1901 1.0943 1.1465 1.1395 0 0 1-1.1011-1.1828 1.1465 1.1395 0 0 1 1.19-1.0944 1.1465 1.1395 0 0 1 1.1013 1.1826"
         id="path29" />
      <path
         d="m278.49 104.97a1.1465 1.1395 0 0 1-1.1901 1.0943 1.1465 1.1395 0 0 1-1.1011-1.1828 1.1465 1.1395 0 0 1 1.19-1.0944 1.1465 1.1395 0 0 1 1.1013 1.1826"
         id="path30" />
      <path
         d="m232.81 119.23a1.1465 1.1395 0 0 1-1.1901 1.0943 1.1465 1.1395 0 0 1-1.1011-1.1828 1.1465 1.1395 0 0 1 1.19-1.0944 1.1465 1.1395 0 0 1 1.1013 1.1826"
         id="path31" />
    </g>
  </g>
  <g
     transform="rotate(.56989 204.39 303.83)"
     aria-label="1"
     id="g33" />
</svg>
